<svg width="25" height="24" viewBox="0 0 25 24" fill="none" xmlns="http://www.w3.org/2000/svg">
<path opacity="0.5" d="M3.5 10C3.5 6.22876 3.5 4.34315 4.67157 3.17157C5.84315 2 7.72876 2 11.5 2H13.5C17.2712 2 19.1569 2 20.3284 3.17157C21.5 4.34315 21.5 6.22876 21.5 10V14C21.5 17.7712 21.5 19.6569 20.3284 20.8284C19.1569 22 17.2712 22 13.5 22H11.5C7.72876 22 5.84315 22 4.67157 20.8284C3.5 19.6569 3.5 17.7712 3.5 14V10Z" fill="#07346E"/>
<path d="M17.0189 16.5013C17.1939 16.3648 17.3526 16.2061 17.6701 15.8886L21.6275 11.9312C21.7231 11.8356 21.6793 11.6708 21.5515 11.6264C21.0844 11.4644 20.4767 11.1601 19.9083 10.5917C19.3399 10.0233 19.0356 9.4156 18.8736 8.94848C18.8292 8.82065 18.6644 8.77686 18.5688 8.87253L14.6114 12.8299C14.2939 13.1474 14.1352 13.3061 13.9987 13.4811C13.8377 13.6876 13.6996 13.9109 13.587 14.1473C13.4915 14.3476 13.4205 14.5606 13.2786 14.9865L13.0951 15.5368L12.8034 16.4118L12.5299 17.2323C12.4601 17.4419 12.5146 17.6729 12.6708 17.8292C12.8271 17.9854 13.0581 18.0399 13.2677 17.9701L14.0882 17.6966L14.9632 17.4049L15.5135 17.2214C15.9393 17.0795 16.1524 17.0085 16.3527 16.913C16.5891 16.8004 16.8124 16.6623 17.0189 16.5013Z" fill="#07346E"/>
<path d="M22.8665 10.6922C23.7112 9.84754 23.7112 8.47812 22.8665 7.63348C22.0219 6.78884 20.6525 6.78884 19.8078 7.63348L19.6806 7.76071C19.5578 7.88348 19.5022 8.05496 19.5329 8.22586C19.5522 8.33336 19.5879 8.49053 19.653 8.67807C19.7831 9.05314 20.0288 9.54549 20.4917 10.0083C20.9545 10.4712 21.4469 10.7169 21.8219 10.847C22.0095 10.9121 22.1666 10.9478 22.2741 10.9671C22.445 10.9978 22.6165 10.9422 22.7393 10.8194L22.8665 10.6922Z" fill="#07346E"/>
<path fill-rule="evenodd" clip-rule="evenodd" d="M7.75 9C7.75 8.58579 8.08579 8.25 8.5 8.25H15C15.4142 8.25 15.75 8.58579 15.75 9C15.75 9.41421 15.4142 9.75 15 9.75H8.5C8.08579 9.75 7.75 9.41421 7.75 9ZM7.75 13C7.75 12.5858 8.08579 12.25 8.5 12.25H11.5C11.9142 12.25 12.25 12.5858 12.25 13C12.25 13.4142 11.9142 13.75 11.5 13.75H8.5C8.08579 13.75 7.75 13.4142 7.75 13ZM7.75 17C7.75 16.5858 8.08579 16.25 8.5 16.25H10C10.4142 16.25 10.75 16.5858 10.75 17C10.75 17.4142 10.4142 17.75 10 17.75H8.5C8.08579 17.75 7.75 17.4142 7.75 17Z" fill="#07346E"/>
</svg>
