<svg width="189" height="95" viewBox="0 0 189 95" fill="none" xmlns="http://www.w3.org/2000/svg">
<path d="M120.46 76.315C120.35 76.345 120.295 76.38 120.295 76.42C120.295 76.45 120.415 76.51 120.655 76.6C120.895 76.69 121.12 76.83 121.33 77.02C121.55 77.21 121.705 77.44 121.795 77.71C121.935 78.12 122.005 78.56 122.005 79.03C122.005 79.5 122.04 79.89 122.11 80.2C122.18 80.5 122.265 80.73 122.365 80.89C122.565 81.23 122.75 81.44 122.92 81.52L123.025 81.58C123.085 81.62 123.115 81.67 123.115 81.73C123.115 81.88 122.87 82.01 122.38 82.12C121.89 82.24 121.51 82.3 121.24 82.3C120.71 82.3 120.37 82.09 120.22 81.67C120.08 81.24 120.01 80.51 120.01 79.48V78.655C120.01 77.785 119.75 77.23 119.23 76.99C119.03 76.9 118.79 76.855 118.51 76.855H118.495C118.405 76.855 118.36 76.77 118.36 76.6C118.36 76.42 118.41 76.24 118.51 76.06C118.62 75.88 118.715 75.79 118.795 75.79C119.125 75.79 119.41 75.73 119.65 75.61C119.89 75.48 120.065 75.325 120.175 75.145C120.405 74.765 120.53 74.44 120.55 74.17V73.975C120.55 73.605 120.49 73.295 120.37 73.045C120.25 72.785 120.1 72.605 119.92 72.505C119.62 72.345 119.315 72.265 119.005 72.265C118.695 72.265 118.44 72.29 118.24 72.34C117.96 72.42 117.82 72.505 117.82 72.595C117.73 73.905 117.685 75.17 117.685 76.39C117.685 77.6 117.7 78.53 117.73 79.18C117.77 79.82 117.805 80.34 117.835 80.74C117.875 81.13 117.895 81.36 117.895 81.43C117.895 81.56 117.86 81.65 117.79 81.7C117.38 82.08 116.735 82.27 115.855 82.27C115.705 82.27 115.63 82.22 115.63 82.12C115.63 82.09 115.645 82.02 115.675 81.91C115.775 81.68 115.845 80.95 115.885 79.72C115.935 78.49 115.96 77.37 115.96 76.36C115.96 75.34 115.94 74.515 115.9 73.885C115.84 72.935 115.74 72.365 115.6 72.175C115.49 72.035 115.435 71.94 115.435 71.89C115.435 71.83 115.49 71.77 115.6 71.71C116.24 71.41 117.4 71.26 119.08 71.26C120.43 71.26 121.44 71.64 122.11 72.4C122.47 72.82 122.65 73.345 122.65 73.975C122.65 74.355 122.575 74.695 122.425 74.995C122.275 75.295 122.09 75.525 121.87 75.685C121.45 76.005 121.055 76.2 120.685 76.27L120.46 76.315ZM128.145 73.69L128.205 73.225C128.205 72.765 128.025 72.47 127.665 72.34C127.385 72.25 127.17 72.205 127.02 72.205H127.005C126.705 72.205 126.445 72.255 126.225 72.355C126.005 72.445 125.845 72.56 125.745 72.7C125.535 72.99 125.415 73.295 125.385 73.615C125.385 73.995 125.555 74.325 125.895 74.605C126.235 74.875 126.645 75.115 127.125 75.325C127.615 75.525 128.1 75.745 128.58 75.985C129.07 76.225 129.485 76.57 129.825 77.02C130.165 77.47 130.335 78.01 130.335 78.64C130.335 79.87 129.945 80.79 129.165 81.4C128.395 82.01 127.515 82.315 126.525 82.315C125.545 82.315 124.73 82.095 124.08 81.655C123.44 81.205 123.12 80.605 123.12 79.855V79.84C123.12 79.47 123.175 79.15 123.285 78.88C123.405 78.6 123.545 78.395 123.705 78.265C124.035 77.995 124.335 77.85 124.605 77.83L124.785 77.815C125.065 77.815 125.32 77.885 125.55 78.025C125.78 78.155 125.895 78.34 125.895 78.58C125.895 78.7 125.83 78.8 125.7 78.88C125.57 78.96 125.455 79.08 125.355 79.24C125.265 79.4 125.215 79.535 125.205 79.645L125.175 79.81C125.175 80.42 125.455 80.825 126.015 81.025C126.215 81.095 126.375 81.13 126.495 81.13C127.045 81.13 127.485 80.965 127.815 80.635C128.155 80.305 128.325 79.885 128.325 79.375C128.325 78.765 128.065 78.27 127.545 77.89C127.155 77.61 126.73 77.375 126.27 77.185C125.82 76.995 125.515 76.86 125.355 76.78C125.195 76.7 125.025 76.605 124.845 76.495C124.665 76.385 124.465 76.23 124.245 76.03C123.765 75.61 123.525 75.045 123.525 74.335C123.525 73.615 123.72 73.01 124.11 72.52C124.81 71.63 125.86 71.185 127.26 71.185C128 71.185 128.625 71.33 129.135 71.62C129.645 71.9 129.9 72.29 129.9 72.79C129.9 73.15 129.795 73.45 129.585 73.69C129.385 73.93 129.125 74.05 128.805 74.05C128.655 74.05 128.505 74.02 128.355 73.96C128.215 73.9 128.145 73.81 128.145 73.69ZM131.336 79.39L131.441 75.175C131.441 74.525 131.426 73.99 131.396 73.57C131.346 72.82 131.261 72.35 131.141 72.16L131.081 72.07C131.031 72.03 131.006 71.98 131.006 71.92C131.006 71.73 131.256 71.58 131.756 71.47C132.256 71.35 132.676 71.29 133.016 71.29C133.356 71.29 133.526 71.385 133.526 71.575L133.511 71.74C133.371 72.73 133.286 73.905 133.256 75.265C133.226 76.615 133.211 77.5 133.211 77.92C133.211 78.34 133.226 78.69 133.256 78.97C133.286 79.25 133.301 79.415 133.301 79.465C133.311 79.505 133.336 79.59 133.376 79.72C133.426 79.84 133.486 79.95 133.556 80.05C133.736 80.29 133.991 80.41 134.321 80.41C134.651 80.41 134.926 80.335 135.146 80.185C135.376 80.035 135.546 79.85 135.656 79.63C135.886 79.16 136.026 78.755 136.076 78.415L136.106 78.19C136.156 77.48 136.181 76.64 136.181 75.67C136.181 74.7 136.176 74.065 136.166 73.765C136.156 73.465 136.141 73.22 136.121 73.03C136.101 72.83 136.081 72.655 136.061 72.505C136.051 72.355 136.041 72.24 136.031 72.16C136.021 72.07 136.016 72.02 136.016 72.01C136.016 71.9 136.071 71.81 136.181 71.74C136.351 71.61 136.611 71.5 136.961 71.41C137.321 71.32 137.641 71.275 137.921 71.275C138.201 71.275 138.341 71.34 138.341 71.47C138.341 71.49 138.316 71.655 138.266 71.965C138.046 73.325 137.936 75.215 137.936 77.635C137.936 79.425 138.056 80.7 138.296 81.46C138.336 81.58 138.356 81.665 138.356 81.715C138.356 81.755 138.316 81.81 138.236 81.88C137.936 82.11 137.536 82.225 137.036 82.225C136.546 82.225 136.281 82.1 136.241 81.85C136.191 81.72 136.161 81.46 136.151 81.07L136.136 80.89C136.136 80.8 136.116 80.755 136.076 80.755L135.911 80.86C135.721 81.18 135.501 81.45 135.251 81.67C135.001 81.88 134.761 82.025 134.531 82.105C134.201 82.225 133.876 82.285 133.556 82.285C133.246 82.285 132.931 82.2 132.611 82.03C132.301 81.87 132.066 81.68 131.906 81.46C131.756 81.24 131.631 80.98 131.531 80.68C131.401 80.25 131.336 79.82 131.336 79.39ZM142.36 72.28C142.18 72.28 142.025 72.31 141.895 72.37C141.765 72.43 141.7 72.505 141.7 72.595C141.58 73.015 141.52 74.27 141.52 76.36C141.52 78.44 141.515 79.605 141.505 79.855C141.695 80.155 141.99 80.305 142.39 80.305C143.1 80.305 143.635 79.915 143.995 79.135C144.355 78.345 144.535 77.36 144.535 76.18C144.535 74.99 144.36 74.045 144.01 73.345C143.66 72.635 143.11 72.28 142.36 72.28ZM139.495 82.165C139.345 82.145 139.27 82.1 139.27 82.03L139.315 81.85C139.565 81.31 139.69 79.365 139.69 76.015C139.69 74.415 139.645 73.415 139.555 73.015C139.475 72.615 139.41 72.36 139.36 72.25L139.285 72.1C139.245 72.06 139.225 72.005 139.225 71.935C139.225 71.855 139.285 71.79 139.405 71.74C140.185 71.43 141.21 71.275 142.48 71.275C145.15 71.275 146.485 72.975 146.485 76.375C146.485 77.705 146.25 78.92 145.78 80.02C145.59 80.44 145.37 80.805 145.12 81.115C144.87 81.415 144.54 81.67 144.13 81.88C143.73 82.08 143.285 82.18 142.795 82.18C142.695 82.17 142.565 82.155 142.405 82.135C142.255 82.115 142.025 82.04 141.715 81.91C141.415 81.78 141.21 81.61 141.1 81.4C140.73 81.91 140.195 82.165 139.495 82.165ZM153.926 72.82C154.186 72.49 154.446 72.185 154.706 71.905C154.976 71.615 155.196 71.435 155.366 71.365C155.536 71.295 155.881 71.26 156.401 71.26C156.921 71.26 157.181 71.325 157.181 71.455C157.181 71.505 157.126 71.56 157.016 71.62C156.906 71.68 156.756 71.775 156.566 71.905C156.376 72.035 155.976 72.39 155.366 72.97C154.766 73.55 154.161 74.23 153.551 75.01C153.531 75.03 153.521 75.06 153.521 75.1C153.521 75.13 153.546 75.15 153.596 75.16C153.656 75.17 153.736 75.185 153.836 75.205C153.936 75.225 154.116 75.305 154.376 75.445C154.646 75.575 154.886 75.745 155.096 75.955C155.306 76.155 155.506 76.47 155.696 76.9C155.896 77.32 156.011 77.72 156.041 78.1C156.071 78.47 156.101 78.805 156.131 79.105C156.161 79.405 156.236 79.835 156.356 80.395C156.486 80.955 156.636 81.29 156.806 81.4C156.856 81.44 156.881 81.49 156.881 81.55C156.881 81.71 156.661 81.86 156.221 82C155.781 82.13 155.386 82.195 155.036 82.195C154.696 82.195 154.501 82.055 154.451 81.775C154.401 81.475 154.366 80.76 154.346 79.63V79.03C154.346 77.98 154.196 77.22 153.896 76.75C153.636 76.34 153.401 76.11 153.191 76.06C153.031 76.01 152.946 75.985 152.936 75.985L152.771 76.06C152.531 76.34 152.341 76.61 152.201 76.87C152.061 77.13 151.986 77.32 151.976 77.44L151.946 77.635C151.946 79.045 152.006 80.25 152.126 81.25C152.146 81.37 152.156 81.44 152.156 81.46C152.156 81.68 151.921 81.87 151.451 82.03C150.991 82.19 150.611 82.27 150.311 82.27C150.021 82.27 149.876 82.225 149.876 82.135C149.876 82.075 149.891 82 149.921 81.91C150.021 81.69 150.091 80.965 150.131 79.735C150.181 78.495 150.206 77.37 150.206 76.36C150.206 75.34 150.186 74.515 150.146 73.885C150.086 72.935 149.986 72.365 149.846 72.175C149.736 72.035 149.681 71.945 149.681 71.905C149.681 71.765 149.936 71.63 150.446 71.5C150.966 71.37 151.381 71.305 151.691 71.305C152.011 71.305 152.171 71.375 152.171 71.515L152.156 71.71C152.026 72.79 151.961 73.945 151.961 75.175C151.961 75.275 151.981 75.325 152.021 75.325C152.071 75.325 152.126 75.28 152.186 75.19C152.246 75.1 152.331 74.975 152.441 74.815C152.561 74.655 152.771 74.365 153.071 73.945C153.381 73.525 153.666 73.15 153.926 72.82ZM162.223 77.5L162.193 79.42C162.193 80.75 162.338 81.55 162.628 81.82C162.668 81.86 162.688 81.905 162.688 81.955C162.688 82.105 162.363 82.18 161.713 82.18C161.073 82.18 160.733 81.99 160.693 81.61C160.683 81.52 160.678 81.335 160.678 81.055L160.738 78.655C160.738 78.585 160.698 78.55 160.618 78.55C160.138 78.55 159.688 78.685 159.268 78.955C158.848 79.225 158.638 79.57 158.638 79.99C158.638 80.21 158.698 80.395 158.818 80.545C158.938 80.695 159.083 80.77 159.253 80.77C159.433 80.77 159.578 80.735 159.688 80.665C159.808 80.595 159.878 80.555 159.898 80.545C160.068 80.565 160.153 80.745 160.153 81.085C160.153 81.415 159.998 81.685 159.688 81.895C159.378 82.095 159.053 82.195 158.713 82.195C158.373 82.195 158.078 82.135 157.828 82.015C157.588 81.895 157.413 81.76 157.303 81.61C157.193 81.46 157.103 81.29 157.033 81.1C156.963 80.87 156.928 80.67 156.928 80.5C156.928 79.8 157.148 79.24 157.588 78.82C158.028 78.4 158.593 78.1 159.283 77.92C160.193 77.74 160.668 77.575 160.708 77.425C160.738 77.315 160.753 77.13 160.753 76.87C160.753 76.34 160.483 76.075 159.943 76.075C159.713 76.075 159.508 76.15 159.328 76.3C159.148 76.44 159.058 76.62 159.058 76.84L159.148 77.2C159.128 77.37 158.948 77.47 158.608 77.5L158.443 77.515C158.143 77.515 157.903 77.44 157.723 77.29C157.553 77.14 157.468 76.94 157.468 76.69C157.468 76.53 157.518 76.355 157.618 76.165C157.728 75.965 157.863 75.805 158.023 75.685C158.183 75.565 158.428 75.46 158.758 75.37C159.098 75.27 159.423 75.22 159.733 75.22C160.043 75.22 160.283 75.23 160.453 75.25C160.623 75.27 160.853 75.32 161.143 75.4C161.443 75.47 161.688 75.61 161.878 75.82C162.078 76.03 162.183 76.255 162.193 76.495C162.213 76.725 162.223 77.06 162.223 77.5ZM168.397 75.325C168.217 76.405 168.127 77.78 168.127 79.45C168.127 80.68 168.177 81.49 168.277 81.88L168.337 82.075C168.337 82.205 168.227 82.27 168.007 82.27C167.237 82.27 166.797 82.055 166.687 81.625C166.677 81.575 166.652 81.55 166.612 81.55C166.582 81.55 166.552 81.57 166.522 81.61C166.212 82.02 165.732 82.225 165.082 82.225C164.722 82.225 164.347 82.135 163.957 81.955C163.717 81.845 163.522 81.655 163.372 81.385C163.222 81.105 163.147 80.765 163.147 80.365L163.372 77.08C163.372 76.39 163.302 75.9 163.162 75.61C163.112 75.5 163.087 75.43 163.087 75.4C163.087 75.34 163.112 75.3 163.162 75.28C163.322 75.23 163.527 75.205 163.777 75.205C164.747 75.205 165.232 75.605 165.232 76.405C165.232 76.655 165.127 77.225 164.917 78.115C164.717 79.005 164.617 79.64 164.617 80.02C164.617 80.39 164.697 80.675 164.857 80.875C165.027 81.075 165.257 81.175 165.547 81.175C165.847 81.175 166.082 81.07 166.252 80.86C166.422 80.65 166.522 80.44 166.552 80.23L166.597 79.915C166.637 79.565 166.657 78.95 166.657 78.07C166.657 77.19 166.627 76.635 166.567 76.405C166.517 76.165 166.492 76.015 166.492 75.955C166.492 75.705 166.692 75.51 167.092 75.37C167.492 75.22 167.852 75.145 168.172 75.145C168.322 75.145 168.397 75.205 168.397 75.325ZM173.697 77.98L173.757 78.505C173.757 78.695 173.577 78.79 173.217 78.79C172.487 78.79 172.122 78.515 172.122 77.965C172.122 77.835 172.157 77.655 172.227 77.425C172.297 77.195 172.332 76.995 172.332 76.825C172.332 76.655 172.282 76.51 172.182 76.39C172.082 76.26 171.937 76.195 171.747 76.195C171.557 76.195 171.392 76.265 171.252 76.405C171.122 76.535 171.042 76.67 171.012 76.81L170.952 77.02C170.892 77.33 170.862 77.85 170.862 78.58C170.862 79.3 170.872 79.87 170.892 80.29C170.912 80.7 170.932 80.985 170.952 81.145C170.972 81.295 170.982 81.385 170.982 81.415C170.982 81.665 170.827 81.865 170.517 82.015C170.207 82.175 169.897 82.255 169.587 82.255C169.277 82.255 169.122 82.19 169.122 82.06L169.197 81.595C169.337 80.725 169.407 79.59 169.407 78.19C169.407 76.79 169.357 75.84 169.257 75.34C169.257 75.22 169.362 75.16 169.572 75.16C170.112 75.16 170.472 75.345 170.652 75.715C170.662 75.755 170.677 75.775 170.697 75.775C170.727 75.775 170.797 75.73 170.907 75.64C171.237 75.37 171.627 75.235 172.077 75.235C172.357 75.235 172.637 75.29 172.917 75.4C173.487 75.63 173.772 76.11 173.772 76.84L173.697 77.98Z" fill="#0F56B3"/>
<g clip-path="url(#clip0_669_523)">
<path d="M3.75 64.3205C3.75 65.667 4.83399 66.75 6.18164 66.75H19.834C21.1816 66.75 22.2656 65.6572 22.2656 64.3205V62.7301H3.75V64.3205Z" fill="black"/>
<path d="M13.0078 52.9437L5.45898 43.6549H3.75V61.3641H22.2656V43.6549H20.5566L13.0078 52.9437Z" fill="black"/>
<path d="M4.05273 39.7521L7.2168 43.6549L12.998 50.7776L18.7793 43.6549L21.9434 39.7521C21.9727 39.7228 21.9922 39.6935 22.0215 39.6643C23.877 37.5567 25 34.7857 25 31.7512C25 25.1262 19.6289 19.75 12.998 19.75C6.36719 19.75 0.996094 25.1262 0.996094 31.7512C0.996094 34.7857 2.11914 37.547 3.97461 39.6643C4.00391 39.6935 4.0332 39.7228 4.05273 39.7521ZM13.0078 26.6678C15.8203 26.6678 18.0957 28.9412 18.0957 31.7512C18.0957 34.5613 15.8203 36.8347 13.0078 36.8347C10.1953 36.8347 7.91992 34.5613 7.91992 31.7512C7.91992 28.951 10.1953 26.6678 13.0078 26.6678Z" fill="#0F56B3"/>
</g>
<path d="M48.9688 55.4844V55.7812C48.9479 56.6562 48.8542 57.5625 48.6875 58.5C48.5312 59.4375 48.3073 60.375 48.0156 61.3125C47.724 62.25 47.375 63.1771 46.9688 64.0938C46.5625 65.0104 46.1042 65.8854 45.5938 66.7188C45.0938 67.5625 44.5521 68.349 43.9688 69.0781C43.3854 69.8177 42.7708 70.4688 42.125 71.0312L39.7969 69.6875C40.1615 69.0729 40.4896 68.401 40.7812 67.6719C41.0833 66.9531 41.3542 66.1979 41.5938 65.4062C41.8333 64.6146 42.0365 63.8021 42.2031 62.9688C42.3802 62.1354 42.526 61.3073 42.6406 60.4844C42.7552 59.6615 42.8385 58.8542 42.8906 58.0625C42.9531 57.2604 42.9844 56.5 42.9844 55.7812C42.9844 55.2188 42.9792 54.5833 42.9688 53.875C42.9688 53.1562 42.9271 52.4271 42.8438 51.6875C42.7708 50.9479 42.6458 50.2292 42.4688 49.5312C42.2917 48.8229 42.026 48.1927 41.6719 47.6406C41.3281 47.0885 40.8802 46.6458 40.3281 46.3125C39.7865 45.9792 39.1094 45.8125 38.2969 45.8125C37.5781 45.8125 36.9583 45.9375 36.4375 46.1875C35.9271 46.4271 35.4896 46.7552 35.125 47.1719C34.7708 47.5781 34.4844 48.0521 34.2656 48.5938C34.0573 49.1354 33.8906 49.7083 33.7656 50.3125C33.651 50.9062 33.5729 51.5104 33.5312 52.125C33.5 52.7292 33.4844 53.3021 33.4844 53.8438V58.2031H40.2188V60.7812H33.4844V66.25H27.2812V54.8125C27.2812 53.1771 27.5417 51.6562 28.0625 50.25C28.5833 48.8438 29.3177 47.625 30.2656 46.5938C31.224 45.5521 32.3698 44.7396 33.7031 44.1562C35.0469 43.5625 36.5417 43.2656 38.1875 43.2656C39.3021 43.2656 40.3438 43.4271 41.3125 43.75C42.2917 44.0625 43.1823 44.5 43.9844 45.0625C44.7865 45.6146 45.5 46.276 46.125 47.0469C46.7604 47.8073 47.2865 48.6406 47.7031 49.5469C48.1302 50.4531 48.4531 51.4115 48.6719 52.4219C48.8906 53.4323 48.9896 54.4531 48.9688 55.4844ZM73.7344 60.1406C73.7344 60.776 73.6302 61.3698 73.4219 61.9219C73.2135 62.474 72.9271 62.9792 72.5625 63.4375C72.1979 63.8854 71.7708 64.2865 71.2812 64.6406C70.8021 64.9948 70.2812 65.2917 69.7188 65.5312C69.1667 65.7708 68.5938 65.9531 68 66.0781C67.4062 66.1927 66.8229 66.25 66.25 66.25H53.0156V43.75H65.1094C65.6406 43.75 66.1979 43.7917 66.7812 43.875C67.3646 43.9479 67.9323 44.0677 68.4844 44.2344C69.0469 44.401 69.5781 44.6198 70.0781 44.8906C70.5885 45.1615 71.0312 45.4948 71.4062 45.8906C71.7917 46.276 72.0938 46.724 72.3125 47.2344C72.5417 47.7448 72.6562 48.3281 72.6562 48.9844C72.6562 49.6094 72.5312 50.1771 72.2812 50.6875C72.0312 51.1979 71.6927 51.6562 71.2656 52.0625C70.849 52.4583 70.3646 52.8125 69.8125 53.125C69.2708 53.4271 68.6979 53.6927 68.0938 53.9219C68.8542 54.1302 69.5729 54.4062 70.25 54.75C70.9375 55.0938 71.5365 55.5156 72.0469 56.0156C72.5677 56.5156 72.9792 57.1094 73.2812 57.7969C73.5833 58.474 73.7344 59.2552 73.7344 60.1406ZM66.3594 49.5312C66.3594 48.2604 66.0208 47.3333 65.3438 46.75C64.6771 46.1667 63.724 45.875 62.4844 45.875H59.2188V53.1719H61.9531C62.5156 53.1719 63.0625 53.1042 63.5938 52.9688C64.125 52.8229 64.5938 52.6042 65 52.3125C65.4167 52.0104 65.7448 51.6302 65.9844 51.1719C66.2344 50.7135 66.3594 50.1667 66.3594 49.5312ZM67.4531 59.75C67.4531 59.1354 67.375 58.5625 67.2188 58.0312C67.0625 57.4896 66.8229 57.026 66.5 56.6406C66.1771 56.2448 65.7708 55.9375 65.2812 55.7188C64.8021 55.4896 64.2344 55.375 63.5781 55.375H59.2188V64.0625H63.0312C63.6667 64.0625 64.2552 63.9583 64.7969 63.75C65.3385 63.5417 65.8073 63.25 66.2031 62.875C66.599 62.5 66.9062 62.0469 67.125 61.5156C67.3438 60.9844 67.4531 60.3958 67.4531 59.75ZM95.8906 59.375C95.8906 60.3438 95.7656 61.1979 95.5156 61.9375C95.276 62.6771 94.9323 63.3177 94.4844 63.8594C94.0469 64.401 93.526 64.8542 92.9219 65.2188C92.3177 65.5833 91.6562 65.875 90.9375 66.0938C90.2292 66.3125 89.474 66.4688 88.6719 66.5625C87.8802 66.6562 87.0729 66.7031 86.25 66.7031C85.1667 66.7031 84.1667 66.6198 83.25 66.4531C82.3333 66.2969 81.4688 66.0469 80.6562 65.7031C79.8542 65.349 79.0781 64.8958 78.3281 64.3438C77.5885 63.7917 76.849 63.1198 76.1094 62.3281L79.2969 59.0938C79.5885 59.8125 79.9896 60.4792 80.5 61.0938C81.0104 61.6979 81.5677 62.2188 82.1719 62.6562C82.7865 63.0938 83.4219 63.4375 84.0781 63.6875C84.7344 63.9375 85.3542 64.0625 85.9375 64.0625C86.625 64.0625 87.2708 64.0156 87.875 63.9219C88.4792 63.8177 89.0052 63.651 89.4531 63.4219C89.901 63.1927 90.25 62.8906 90.5 62.5156C90.7604 62.1302 90.8906 61.651 90.8906 61.0781C90.8906 60.6406 90.7917 60.2656 90.5938 59.9531C90.3958 59.6406 90.1354 59.375 89.8125 59.1562C89.5 58.9271 89.1406 58.7344 88.7344 58.5781C88.3281 58.4219 87.9115 58.2917 87.4844 58.1875C87.0677 58.0729 86.6562 57.974 86.25 57.8906C85.8438 57.7969 85.4844 57.7031 85.1719 57.6094C84.5573 57.4323 83.9167 57.2448 83.25 57.0469C82.5833 56.8385 81.9271 56.6042 81.2812 56.3438C80.6354 56.0833 80.0208 55.7865 79.4375 55.4531C78.8646 55.1094 78.3594 54.7083 77.9219 54.25C77.4844 53.7812 77.1354 53.2448 76.875 52.6406C76.6146 52.026 76.4844 51.3229 76.4844 50.5312C76.4844 49.5833 76.599 48.7448 76.8281 48.0156C77.0677 47.276 77.401 46.6354 77.8281 46.0938C78.2552 45.5521 78.7604 45.099 79.3438 44.7344C79.9271 44.3594 80.5677 44.0625 81.2656 43.8438C81.9635 43.6146 82.7031 43.4531 83.4844 43.3594C84.276 43.2552 85.0833 43.2031 85.9062 43.2031C87.0312 43.2031 88.0521 43.3073 88.9688 43.5156C89.8958 43.724 90.75 44.0208 91.5312 44.4062C92.3125 44.7917 93.026 45.2552 93.6719 45.7969C94.3281 46.3281 94.9427 46.9219 95.5156 47.5781L92.3281 50.8125C92.0781 50.0625 91.7292 49.3854 91.2812 48.7812C90.8438 48.1771 90.3542 47.6615 89.8125 47.2344C89.2708 46.7969 88.7031 46.4635 88.1094 46.2344C87.5156 45.9948 86.9427 45.875 86.3906 45.875C85.6719 45.875 85.0104 45.9271 84.4062 46.0312C83.8021 46.125 83.2812 46.2865 82.8438 46.5156C82.4167 46.7344 82.0833 47.0365 81.8438 47.4219C81.6042 47.7969 81.4844 48.2656 81.4844 48.8281C81.4844 49.276 81.5729 49.6562 81.75 49.9688C81.9271 50.2812 82.1615 50.5469 82.4531 50.7656C82.7552 50.9844 83.0938 51.1667 83.4688 51.3125C83.8438 51.4479 84.2292 51.5677 84.625 51.6719C85.0312 51.776 85.4271 51.8698 85.8125 51.9531C86.2083 52.026 86.5677 52.1094 86.8906 52.2031C87.5156 52.3802 88.1719 52.5677 88.8594 52.7656C89.5469 52.9635 90.224 53.1979 90.8906 53.4688C91.5573 53.7292 92.1927 54.0312 92.7969 54.375C93.401 54.7188 93.9323 55.1302 94.3906 55.6094C94.849 56.0781 95.2135 56.625 95.4844 57.25C95.7552 57.8646 95.8906 58.5729 95.8906 59.375ZM115.922 66.25H99.7656V43.75H115.922V46.625H105.969V53.5781H113.656V56.4375H105.969V63.375H115.922V66.25ZM122.641 66.25H119.766V43.75H123.797L137.469 59.2031V43.75H140.328V66.25H136.297L122.641 50.8125V66.25ZM163.859 59.375C163.859 60.3438 163.734 61.1979 163.484 61.9375C163.245 62.6771 162.901 63.3177 162.453 63.8594C162.016 64.401 161.495 64.8542 160.891 65.2188C160.286 65.5833 159.625 65.875 158.906 66.0938C158.198 66.3125 157.443 66.4688 156.641 66.5625C155.849 66.6562 155.042 66.7031 154.219 66.7031C153.135 66.7031 152.135 66.6198 151.219 66.4531C150.302 66.2969 149.438 66.0469 148.625 65.7031C147.823 65.349 147.047 64.8958 146.297 64.3438C145.557 63.7917 144.818 63.1198 144.078 62.3281L147.266 59.0938C147.557 59.8125 147.958 60.4792 148.469 61.0938C148.979 61.6979 149.536 62.2188 150.141 62.6562C150.755 63.0938 151.391 63.4375 152.047 63.6875C152.703 63.9375 153.323 64.0625 153.906 64.0625C154.594 64.0625 155.24 64.0156 155.844 63.9219C156.448 63.8177 156.974 63.651 157.422 63.4219C157.87 63.1927 158.219 62.8906 158.469 62.5156C158.729 62.1302 158.859 61.651 158.859 61.0781C158.859 60.6406 158.76 60.2656 158.562 59.9531C158.365 59.6406 158.104 59.375 157.781 59.1562C157.469 58.9271 157.109 58.7344 156.703 58.5781C156.297 58.4219 155.88 58.2917 155.453 58.1875C155.036 58.0729 154.625 57.974 154.219 57.8906C153.812 57.7969 153.453 57.7031 153.141 57.6094C152.526 57.4323 151.885 57.2448 151.219 57.0469C150.552 56.8385 149.896 56.6042 149.25 56.3438C148.604 56.0833 147.99 55.7865 147.406 55.4531C146.833 55.1094 146.328 54.7083 145.891 54.25C145.453 53.7812 145.104 53.2448 144.844 52.6406C144.583 52.026 144.453 51.3229 144.453 50.5312C144.453 49.5833 144.568 48.7448 144.797 48.0156C145.036 47.276 145.37 46.6354 145.797 46.0938C146.224 45.5521 146.729 45.099 147.312 44.7344C147.896 44.3594 148.536 44.0625 149.234 43.8438C149.932 43.6146 150.672 43.4531 151.453 43.3594C152.245 43.2552 153.052 43.2031 153.875 43.2031C155 43.2031 156.021 43.3073 156.938 43.5156C157.865 43.724 158.719 44.0208 159.5 44.4062C160.281 44.7917 160.995 45.2552 161.641 45.7969C162.297 46.3281 162.911 46.9219 163.484 47.5781L160.297 50.8125C160.047 50.0625 159.698 49.3854 159.25 48.7812C158.812 48.1771 158.323 47.6615 157.781 47.2344C157.24 46.7969 156.672 46.4635 156.078 46.2344C155.484 45.9948 154.911 45.875 154.359 45.875C153.641 45.875 152.979 45.9271 152.375 46.0312C151.771 46.125 151.25 46.2865 150.812 46.5156C150.385 46.7344 150.052 47.0365 149.812 47.4219C149.573 47.7969 149.453 48.2656 149.453 48.8281C149.453 49.276 149.542 49.6562 149.719 49.9688C149.896 50.2812 150.13 50.5469 150.422 50.7656C150.724 50.9844 151.062 51.1667 151.438 51.3125C151.812 51.4479 152.198 51.5677 152.594 51.6719C153 51.776 153.396 51.8698 153.781 51.9531C154.177 52.026 154.536 52.1094 154.859 52.2031C155.484 52.3802 156.141 52.5677 156.828 52.7656C157.516 52.9635 158.193 53.1979 158.859 53.4688C159.526 53.7292 160.161 54.0312 160.766 54.375C161.37 54.7188 161.901 55.1302 162.359 55.6094C162.818 56.0781 163.182 56.625 163.453 57.25C163.724 57.8646 163.859 58.5729 163.859 59.375ZM173.938 66.25H167.734V43.75H173.938V66.25Z" fill="#0F56B3"/>
<defs>
<clipPath id="clip0_669_523">
<rect width="24.0039" height="47" fill="white" transform="translate(0.996094 19.75)"/>
</clipPath>
</defs>
</svg>
